<?xml version="1.0" standalone="no"?>
<!DOCTYPE svg PUBLIC "-//W3C//DTD SVG 20010904//EN"
 "http://www.w3.org/TR/2001/REC-SVG-20010904/DTD/svg10.dtd">
<svg version="1.0" xmlns="http://www.w3.org/2000/svg"
 width="700.000000pt" height="700.000000pt" viewBox="0 0 700.000000 700.000000"
 preserveAspectRatio="xMidYMid meet">
<metadata>
Created by potrace 1.14, written by Peter Selinger 2001-2017
</metadata>
<g transform="translate(0.000000,700.000000) scale(0.100000,-0.100000)"
fill="#000000" stroke="none">
<path d="M1323 6114 c-127 -25 -210 -71 -300 -167 -66 -70 -115 -164 -134
-252 -19 -88 -20 -1443 -2 -1535 46 -227 236 -407 462 -435 73 -9 1396 -9
1463 0 221 30 407 204 458 431 15 63 15 1446 1 1519 -23 119 -88 235 -174 313
-53 46 -152 98 -227 118 -58 16 -137 18 -777 18 -490 1 -731 -2 -770 -10z
m1459 -440 c65 -33 62 2 63 -738 0 -387 -3 -684 -9 -701 -11 -37 -39 -65 -74
-74 -15 -3 -329 -6 -698 -6 -747 1 -710 -2 -739 68 -20 49 -19 1359 1 1402 30
65 -3 63 748 63 564 0 686 -3 708 -14z"/>
<path d="M1908 5240 c-52 -16 -98 -52 -126 -98 -26 -45 -27 -54 -30 -198 -5
-186 3 -220 66 -283 61 -61 91 -68 277 -66 132 1 155 4 191 23 98 50 122 115
120 322 -2 117 -5 152 -20 182 -24 50 -86 104 -133 117 -44 13 -305 13 -345 1z"/>
<path d="M4158 6113 c-100 -20 -203 -76 -278 -152 -86 -86 -134 -182 -155
-305 -8 -51 -8 -1406 0 -1471 9 -64 49 -167 89 -225 85 -125 228 -215 373
-235 66 -9 1401 -9 1468 0 156 21 299 114 383 249 90 143 88 127 87 951 -1
391 -5 729 -9 752 -33 196 -208 386 -396 429 -19 4 -42 9 -50 12 -8 2 -337 5
-732 6 -542 1 -732 -2 -780 -11z m1470 -440 c62 -29 61 -13 60 -757 0 -645 -1
-676 -19 -706 -11 -17 -32 -37 -48 -43 -21 -9 -202 -12 -707 -11 -622 0 -681
2 -705 17 -56 37 -54 13 -53 752 0 637 1 684 18 709 35 54 26 54 750 54 582 0
675 -2 704 -15z"/>
<path d="M4760 5243 c-70 -24 -129 -75 -152 -132 -6 -14 -12 -93 -13 -176 -3
-177 11 -234 73 -285 59 -49 100 -57 267 -55 172 1 202 10 260 78 49 57 57 98
53 271 -3 160 -10 184 -61 240 -50 54 -98 66 -262 65 -82 0 -157 -3 -165 -6z"/>
<path d="M1497 3284 c-1 -1 -45 -4 -97 -7 -141 -8 -241 -48 -343 -137 -84 -74
-152 -194 -172 -305 -14 -70 -12 -1453 1 -1515 28 -130 73 -210 166 -298 78
-73 162 -115 273 -136 66 -13 1441 -15 1505 -2 226 44 397 215 441 440 10 53
14 1439 4 1486 -3 14 -8 41 -11 60 -7 39 -52 134 -86 183 -83 121 -242 211
-391 223 -58 5 -1284 12 -1290 8z m1294 -457 c55 -36 53 -14 53 -752 0 -636
-1 -684 -18 -710 -36 -55 -27 -54 -752 -53 -368 1 -679 5 -692 10 -26 9 -41
23 -58 54 -8 14 -11 214 -10 706 1 680 1 687 22 715 11 15 34 33 51 38 19 6
280 10 704 9 618 0 676 -1 700 -17z"/>
<path d="M1918 2400 c-86 -25 -151 -95 -164 -175 -3 -24 -4 -105 -2 -181 4
-147 11 -174 61 -228 49 -53 98 -66 257 -66 80 0 163 5 185 11 49 13 126 89
141 139 6 19 10 105 9 190 -1 164 -6 187 -58 247 -48 55 -89 66 -252 68 -82 1
-162 -1 -177 -5z"/>
<path d="M3897 3277 c-86 -21 -144 -73 -166 -148 -15 -51 -16 -293 -1 -348 14
-51 60 -106 114 -133 35 -18 61 -21 188 -23 175 -1 219 9 276 65 58 55 68 100
66 278 -1 128 -4 152 -22 188 -25 50 -78 98 -124 113 -41 13 -285 19 -331 8z"/>
<path d="M5700 3280 c-116 -8 -179 -49 -214 -138 -23 -59 -23 -325 0 -380 19
-48 59 -88 109 -114 34 -18 59 -21 180 -21 77 -1 157 2 177 5 75 12 144 78
165 159 5 19 8 97 8 174 -1 122 -4 146 -24 190 -25 56 -75 100 -130 115 -45
12 -172 17 -271 10z"/>
<path d="M4765 2400 c-73 -16 -142 -79 -160 -145 -13 -48 -15 -285 -2 -339 15
-63 71 -127 132 -150 38 -15 71 -17 203 -14 170 4 201 12 251 67 51 57 61 95
61 251 0 168 -8 207 -56 260 -58 64 -89 73 -254 75 -80 1 -158 -1 -175 -5z"/>
<path d="M3867 1520 c-47 -14 -96 -59 -123 -112 -24 -47 -25 -59 -25 -193 0
-165 9 -211 53 -261 59 -67 94 -78 258 -79 86 -1 162 3 186 11 59 16 109 58
136 112 20 42 22 63 23 192 1 165 -8 207 -55 263 -56 67 -91 77 -270 76 -85 0
-168 -5 -183 -9z"/>
<path d="M5612 1519 c-46 -14 -118 -88 -131 -135 -17 -63 -14 -327 5 -372 19
-47 58 -88 109 -115 35 -18 59 -21 190 -22 83 -1 164 3 180 8 57 19 112 65
136 114 21 43 23 62 23 203 1 171 -6 202 -58 258 -57 62 -87 70 -263 70 -87 1
-173 -4 -191 -9z"/>
</g>
</svg>
